<svg width="16" height="17" viewBox="0 0 16 17" fill="none" xmlns="http://www.w3.org/2000/svg">
<g id="Icon">
<path id="Path_49" fill-rule="evenodd" clip-rule="evenodd" d="M8 8.50757C9.10457 8.50757 10 9.403 10 10.5076C10 11.6121 9.10457 12.5076 8 12.5076C6.89543 12.5076 6 11.6121 6 10.5076C6.00329 9.40437 6.8968 8.51086 8 8.50757ZM8 2.50757C6.8968 2.51086 6.00329 3.40437 6 4.50757H10C9.99671 3.40437 9.1032 2.51086 8 2.50757ZM13 16.5076H3C1.8968 16.5043 1.00329 15.6108 1 14.5076V6.50757C1.00329 5.40437 1.8968 4.51086 3 4.50757H4C4 2.29843 5.79086 0.507568 8 0.507568C10.2091 0.507568 12 2.29843 12 4.50757H13C14.1032 4.51086 14.9967 5.40437 15 6.50757V14.5076C14.9967 15.6108 14.1032 16.5043 13 16.5076Z" fill="#8A8DA1"/>
</g>
</svg>
